<mxfile host="app.diagrams.net" agent="Mozilla/5.0 (Windows NT 10.0; Win64; x64) AppleWebKit/537.36 (KHTML, like Gecko) Chrome/137.0.0.0 Safari/537.36" version="27.1.4">
  <diagram name="Halaman-1" id="4xVKHfQ_7n-rCFLxNcaE">
    <mxGraphModel grid="1" page="1" gridSize="10" guides="1" tooltips="1" connect="1" arrows="1" fold="1" pageScale="1" pageWidth="827" pageHeight="1169" math="0" shadow="0">
      <root>
        <mxCell id="0" />
        <mxCell id="1" parent="0" />
        <mxCell id="KWzyHghkKd3B786rEkZt-2" value="customer" style="rounded=0;whiteSpace=wrap;html=1;" vertex="1" parent="1">
          <mxGeometry x="100" y="130" width="120" height="60" as="geometry" />
        </mxCell>
        <mxCell id="KWzyHghkKd3B786rEkZt-3" value="memesan" style="rhombus;whiteSpace=wrap;html=1;" vertex="1" parent="1">
          <mxGeometry x="120" y="250" width="80" height="80" as="geometry" />
        </mxCell>
        <mxCell id="KWzyHghkKd3B786rEkZt-4" value="" style="endArrow=none;html=1;rounded=0;entryX=0.5;entryY=1;entryDx=0;entryDy=0;exitX=0.5;exitY=0;exitDx=0;exitDy=0;" edge="1" parent="1" source="KWzyHghkKd3B786rEkZt-3" target="KWzyHghkKd3B786rEkZt-2">
          <mxGeometry width="50" height="50" relative="1" as="geometry">
            <mxPoint x="140" y="250" as="sourcePoint" />
            <mxPoint x="190" y="200" as="targetPoint" />
          </mxGeometry>
        </mxCell>
        <mxCell id="KWzyHghkKd3B786rEkZt-5" value="no_telepon" style="ellipse;whiteSpace=wrap;html=1;" vertex="1" parent="1">
          <mxGeometry x="293.5" y="120" width="120" height="80" as="geometry" />
        </mxCell>
        <mxCell id="KWzyHghkKd3B786rEkZt-6" value="nama" style="ellipse;whiteSpace=wrap;html=1;" vertex="1" parent="1">
          <mxGeometry x="100" y="10" width="120" height="80" as="geometry" />
        </mxCell>
        <mxCell id="KWzyHghkKd3B786rEkZt-7" value="id_customer" style="ellipse;whiteSpace=wrap;html=1;" vertex="1" parent="1">
          <mxGeometry x="-40" y="30" width="120" height="80" as="geometry" />
        </mxCell>
        <mxCell id="KWzyHghkKd3B786rEkZt-13" value="" style="endArrow=none;html=1;rounded=0;entryX=0.5;entryY=1;entryDx=0;entryDy=0;" edge="1" parent="1" target="KWzyHghkKd3B786rEkZt-6">
          <mxGeometry width="50" height="50" relative="1" as="geometry">
            <mxPoint x="160" y="130" as="sourcePoint" />
            <mxPoint x="680" y="220" as="targetPoint" />
          </mxGeometry>
        </mxCell>
        <mxCell id="KWzyHghkKd3B786rEkZt-14" value="" style="endArrow=none;html=1;rounded=0;exitX=1;exitY=1;exitDx=0;exitDy=0;entryX=0;entryY=0;entryDx=0;entryDy=0;" edge="1" parent="1" source="KWzyHghkKd3B786rEkZt-7" target="KWzyHghkKd3B786rEkZt-2">
          <mxGeometry width="50" height="50" relative="1" as="geometry">
            <mxPoint x="30" y="220" as="sourcePoint" />
            <mxPoint x="80" y="170" as="targetPoint" />
          </mxGeometry>
        </mxCell>
        <mxCell id="KWzyHghkKd3B786rEkZt-15" value="" style="endArrow=none;html=1;rounded=0;exitX=1;exitY=0.5;exitDx=0;exitDy=0;entryX=0;entryY=0.5;entryDx=0;entryDy=0;" edge="1" parent="1" source="KWzyHghkKd3B786rEkZt-2" target="KWzyHghkKd3B786rEkZt-5">
          <mxGeometry width="50" height="50" relative="1" as="geometry">
            <mxPoint x="240" y="210" as="sourcePoint" />
            <mxPoint x="290" y="160" as="targetPoint" />
          </mxGeometry>
        </mxCell>
        <mxCell id="KWzyHghkKd3B786rEkZt-16" value="" style="endArrow=none;html=1;rounded=0;entryX=0.5;entryY=1;entryDx=0;entryDy=0;exitX=0.5;exitY=0;exitDx=0;exitDy=0;" edge="1" parent="1" source="ggYYTiPS5rjxjL7YJotB-1" target="KWzyHghkKd3B786rEkZt-3">
          <mxGeometry width="50" height="50" relative="1" as="geometry">
            <mxPoint x="160" y="440" as="sourcePoint" />
            <mxPoint x="170" y="370" as="targetPoint" />
          </mxGeometry>
        </mxCell>
        <mxCell id="ggYYTiPS5rjxjL7YJotB-1" value="menu" style="rounded=0;whiteSpace=wrap;html=1;" vertex="1" parent="1">
          <mxGeometry x="100" y="410" width="120" height="60" as="geometry" />
        </mxCell>
        <mxCell id="ggYYTiPS5rjxjL7YJotB-2" value="nama_menu" style="ellipse;whiteSpace=wrap;html=1;" vertex="1" parent="1">
          <mxGeometry x="-40" y="500" width="120" height="80" as="geometry" />
        </mxCell>
        <mxCell id="ggYYTiPS5rjxjL7YJotB-3" value="harga_menu" style="ellipse;whiteSpace=wrap;html=1;" vertex="1" parent="1">
          <mxGeometry x="-50" y="300" width="120" height="80" as="geometry" />
        </mxCell>
        <mxCell id="ggYYTiPS5rjxjL7YJotB-4" value="no_menu" style="ellipse;whiteSpace=wrap;html=1;" vertex="1" parent="1">
          <mxGeometry x="-60" y="400" width="120" height="80" as="geometry" />
        </mxCell>
        <mxCell id="ggYYTiPS5rjxjL7YJotB-5" value="" style="endArrow=none;html=1;rounded=0;exitX=1;exitY=1;exitDx=0;exitDy=0;entryX=0;entryY=0;entryDx=0;entryDy=0;" edge="1" parent="1" source="ggYYTiPS5rjxjL7YJotB-3" target="ggYYTiPS5rjxjL7YJotB-1">
          <mxGeometry width="50" height="50" relative="1" as="geometry">
            <mxPoint x="90" y="440" as="sourcePoint" />
            <mxPoint x="140" y="390" as="targetPoint" />
          </mxGeometry>
        </mxCell>
        <mxCell id="ggYYTiPS5rjxjL7YJotB-6" value="" style="endArrow=none;html=1;rounded=0;exitX=1;exitY=0.5;exitDx=0;exitDy=0;entryX=0;entryY=0.5;entryDx=0;entryDy=0;" edge="1" parent="1" source="ggYYTiPS5rjxjL7YJotB-4" target="ggYYTiPS5rjxjL7YJotB-1">
          <mxGeometry width="50" height="50" relative="1" as="geometry">
            <mxPoint x="50" y="520" as="sourcePoint" />
            <mxPoint x="100" y="470" as="targetPoint" />
          </mxGeometry>
        </mxCell>
        <mxCell id="ggYYTiPS5rjxjL7YJotB-7" value="" style="endArrow=none;html=1;rounded=0;exitX=1;exitY=0;exitDx=0;exitDy=0;entryX=0;entryY=1;entryDx=0;entryDy=0;" edge="1" parent="1" source="ggYYTiPS5rjxjL7YJotB-2" target="ggYYTiPS5rjxjL7YJotB-1">
          <mxGeometry width="50" height="50" relative="1" as="geometry">
            <mxPoint x="60" y="560" as="sourcePoint" />
            <mxPoint x="110" y="510" as="targetPoint" />
          </mxGeometry>
        </mxCell>
        <mxCell id="ggYYTiPS5rjxjL7YJotB-8" value="dicatat" style="rhombus;whiteSpace=wrap;html=1;" vertex="1" parent="1">
          <mxGeometry x="105" y="590" width="110" height="110" as="geometry" />
        </mxCell>
        <mxCell id="ggYYTiPS5rjxjL7YJotB-9" value="" style="endArrow=none;html=1;rounded=0;entryX=0.5;entryY=1;entryDx=0;entryDy=0;exitX=0.5;exitY=0;exitDx=0;exitDy=0;" edge="1" parent="1" source="ggYYTiPS5rjxjL7YJotB-8" target="ggYYTiPS5rjxjL7YJotB-1">
          <mxGeometry width="50" height="50" relative="1" as="geometry">
            <mxPoint x="130" y="590" as="sourcePoint" />
            <mxPoint x="180" y="540" as="targetPoint" />
          </mxGeometry>
        </mxCell>
        <mxCell id="ggYYTiPS5rjxjL7YJotB-10" value="pelayan" style="rounded=0;whiteSpace=wrap;html=1;" vertex="1" parent="1">
          <mxGeometry x="100" y="820" width="120" height="60" as="geometry" />
        </mxCell>
        <mxCell id="ggYYTiPS5rjxjL7YJotB-13" value="" style="endArrow=none;html=1;rounded=0;entryX=0.5;entryY=1;entryDx=0;entryDy=0;exitX=0.5;exitY=0;exitDx=0;exitDy=0;" edge="1" parent="1" source="ggYYTiPS5rjxjL7YJotB-10" target="ggYYTiPS5rjxjL7YJotB-8">
          <mxGeometry width="50" height="50" relative="1" as="geometry">
            <mxPoint x="130" y="770" as="sourcePoint" />
            <mxPoint x="180" y="720" as="targetPoint" />
          </mxGeometry>
        </mxCell>
        <mxCell id="ggYYTiPS5rjxjL7YJotB-14" value="id_pelayan" style="ellipse;whiteSpace=wrap;html=1;" vertex="1" parent="1">
          <mxGeometry x="210" y="690" width="120" height="80" as="geometry" />
        </mxCell>
        <mxCell id="ggYYTiPS5rjxjL7YJotB-15" value="nama" style="ellipse;whiteSpace=wrap;html=1;" vertex="1" parent="1">
          <mxGeometry x="250" y="780" width="120" height="80" as="geometry" />
        </mxCell>
        <mxCell id="ggYYTiPS5rjxjL7YJotB-16" value="no_telp" style="ellipse;whiteSpace=wrap;html=1;" vertex="1" parent="1">
          <mxGeometry x="240" y="890" width="120" height="80" as="geometry" />
        </mxCell>
        <mxCell id="ggYYTiPS5rjxjL7YJotB-18" value="" style="endArrow=none;html=1;rounded=0;entryX=0;entryY=1;entryDx=0;entryDy=0;exitX=0.75;exitY=0;exitDx=0;exitDy=0;" edge="1" parent="1" source="ggYYTiPS5rjxjL7YJotB-10" target="ggYYTiPS5rjxjL7YJotB-14">
          <mxGeometry width="50" height="50" relative="1" as="geometry">
            <mxPoint x="180" y="820" as="sourcePoint" />
            <mxPoint x="230" y="770" as="targetPoint" />
          </mxGeometry>
        </mxCell>
        <mxCell id="ggYYTiPS5rjxjL7YJotB-19" value="" style="endArrow=none;html=1;rounded=0;entryX=0;entryY=0.5;entryDx=0;entryDy=0;exitX=1;exitY=0.25;exitDx=0;exitDy=0;" edge="1" parent="1" source="ggYYTiPS5rjxjL7YJotB-10" target="ggYYTiPS5rjxjL7YJotB-15">
          <mxGeometry width="50" height="50" relative="1" as="geometry">
            <mxPoint x="200" y="900" as="sourcePoint" />
            <mxPoint x="250" y="850" as="targetPoint" />
          </mxGeometry>
        </mxCell>
        <mxCell id="ggYYTiPS5rjxjL7YJotB-21" value="" style="endArrow=none;html=1;rounded=0;entryX=1;entryY=1;entryDx=0;entryDy=0;exitX=0;exitY=0;exitDx=0;exitDy=0;" edge="1" parent="1" source="ggYYTiPS5rjxjL7YJotB-16" target="ggYYTiPS5rjxjL7YJotB-10">
          <mxGeometry width="50" height="50" relative="1" as="geometry">
            <mxPoint x="190" y="930" as="sourcePoint" />
            <mxPoint x="240" y="880" as="targetPoint" />
          </mxGeometry>
        </mxCell>
        <mxCell id="ggYYTiPS5rjxjL7YJotB-23" value="memberikan_menu" style="rhombus;whiteSpace=wrap;html=1;" vertex="1" parent="1">
          <mxGeometry x="-100" y="790" width="120" height="120" as="geometry" />
        </mxCell>
        <mxCell id="ggYYTiPS5rjxjL7YJotB-25" value="" style="endArrow=none;html=1;rounded=0;entryX=1;entryY=0.5;entryDx=0;entryDy=0;exitX=0;exitY=0.5;exitDx=0;exitDy=0;" edge="1" parent="1" source="ggYYTiPS5rjxjL7YJotB-10" target="ggYYTiPS5rjxjL7YJotB-23">
          <mxGeometry width="50" height="50" relative="1" as="geometry">
            <mxPoint x="40" y="930" as="sourcePoint" />
            <mxPoint x="90" y="880" as="targetPoint" />
          </mxGeometry>
        </mxCell>
        <mxCell id="ggYYTiPS5rjxjL7YJotB-26" value="koki" style="rounded=0;whiteSpace=wrap;html=1;" vertex="1" parent="1">
          <mxGeometry x="-310" y="820" width="120" height="60" as="geometry" />
        </mxCell>
        <mxCell id="ggYYTiPS5rjxjL7YJotB-27" value="id_koki" style="ellipse;whiteSpace=wrap;html=1;" vertex="1" parent="1">
          <mxGeometry x="-490" y="760" width="120" height="80" as="geometry" />
        </mxCell>
        <mxCell id="ggYYTiPS5rjxjL7YJotB-28" value="nama" style="ellipse;whiteSpace=wrap;html=1;" vertex="1" parent="1">
          <mxGeometry x="-473" y="870" width="120" height="80" as="geometry" />
        </mxCell>
        <mxCell id="ggYYTiPS5rjxjL7YJotB-29" value="no_telp" style="ellipse;whiteSpace=wrap;html=1;" vertex="1" parent="1">
          <mxGeometry x="-353" y="930" width="120" height="80" as="geometry" />
        </mxCell>
        <mxCell id="ggYYTiPS5rjxjL7YJotB-33" value="membayar_menu" style="rhombus;whiteSpace=wrap;html=1;" vertex="1" parent="1">
          <mxGeometry x="-160" y="112.5" width="100" height="95" as="geometry" />
        </mxCell>
        <mxCell id="ggYYTiPS5rjxjL7YJotB-35" value="kasir" style="rounded=0;whiteSpace=wrap;html=1;" vertex="1" parent="1">
          <mxGeometry x="-400" y="130" width="120" height="60" as="geometry" />
        </mxCell>
        <mxCell id="ggYYTiPS5rjxjL7YJotB-40" value="" style="endArrow=none;html=1;rounded=0;entryX=0;entryY=0.5;entryDx=0;entryDy=0;exitX=1;exitY=0.5;exitDx=0;exitDy=0;" edge="1" parent="1" source="ggYYTiPS5rjxjL7YJotB-26" target="ggYYTiPS5rjxjL7YJotB-23">
          <mxGeometry width="50" height="50" relative="1" as="geometry">
            <mxPoint x="-260" y="730" as="sourcePoint" />
            <mxPoint x="-210" y="680" as="targetPoint" />
          </mxGeometry>
        </mxCell>
        <mxCell id="ggYYTiPS5rjxjL7YJotB-41" value="" style="endArrow=none;html=1;rounded=0;exitX=1;exitY=0.5;exitDx=0;exitDy=0;entryX=0;entryY=0;entryDx=0;entryDy=0;" edge="1" parent="1" source="ggYYTiPS5rjxjL7YJotB-27" target="ggYYTiPS5rjxjL7YJotB-26">
          <mxGeometry width="50" height="50" relative="1" as="geometry">
            <mxPoint x="-280" y="780" as="sourcePoint" />
            <mxPoint x="-230" y="730" as="targetPoint" />
          </mxGeometry>
        </mxCell>
        <mxCell id="ggYYTiPS5rjxjL7YJotB-42" value="" style="endArrow=none;html=1;rounded=0;entryX=0;entryY=1;entryDx=0;entryDy=0;exitX=1;exitY=0.5;exitDx=0;exitDy=0;" edge="1" parent="1" source="ggYYTiPS5rjxjL7YJotB-28" target="ggYYTiPS5rjxjL7YJotB-26">
          <mxGeometry width="50" height="50" relative="1" as="geometry">
            <mxPoint x="-530" y="1030" as="sourcePoint" />
            <mxPoint x="-480" y="980" as="targetPoint" />
          </mxGeometry>
        </mxCell>
        <mxCell id="ggYYTiPS5rjxjL7YJotB-43" value="" style="endArrow=none;html=1;rounded=0;entryX=0.25;entryY=1;entryDx=0;entryDy=0;exitX=0.5;exitY=0;exitDx=0;exitDy=0;" edge="1" parent="1" source="ggYYTiPS5rjxjL7YJotB-29" target="ggYYTiPS5rjxjL7YJotB-26">
          <mxGeometry width="50" height="50" relative="1" as="geometry">
            <mxPoint x="-290" y="940" as="sourcePoint" />
            <mxPoint x="-250" y="900" as="targetPoint" />
          </mxGeometry>
        </mxCell>
        <mxCell id="ggYYTiPS5rjxjL7YJotB-45" value="id_kasir" style="ellipse;whiteSpace=wrap;html=1;" vertex="1" parent="1">
          <mxGeometry x="-400" y="10" width="120" height="80" as="geometry" />
        </mxCell>
        <mxCell id="ggYYTiPS5rjxjL7YJotB-46" value="nama" style="ellipse;whiteSpace=wrap;html=1;" vertex="1" parent="1">
          <mxGeometry x="-540" y="40" width="120" height="80" as="geometry" />
        </mxCell>
        <mxCell id="ggYYTiPS5rjxjL7YJotB-47" value="no_telp" style="ellipse;whiteSpace=wrap;html=1;" vertex="1" parent="1">
          <mxGeometry x="-540" y="190" width="120" height="80" as="geometry" />
        </mxCell>
        <mxCell id="ggYYTiPS5rjxjL7YJotB-49" value="" style="endArrow=none;html=1;rounded=0;entryX=0.5;entryY=1;entryDx=0;entryDy=0;exitX=0.5;exitY=0;exitDx=0;exitDy=0;" edge="1" parent="1" source="ggYYTiPS5rjxjL7YJotB-35" target="ggYYTiPS5rjxjL7YJotB-45">
          <mxGeometry width="50" height="50" relative="1" as="geometry">
            <mxPoint x="-450" y="200" as="sourcePoint" />
            <mxPoint x="-400" y="150" as="targetPoint" />
          </mxGeometry>
        </mxCell>
        <mxCell id="ggYYTiPS5rjxjL7YJotB-50" value="" style="endArrow=none;html=1;rounded=0;exitX=1;exitY=1;exitDx=0;exitDy=0;entryX=0;entryY=0;entryDx=0;entryDy=0;" edge="1" parent="1" source="ggYYTiPS5rjxjL7YJotB-46" target="ggYYTiPS5rjxjL7YJotB-35">
          <mxGeometry width="50" height="50" relative="1" as="geometry">
            <mxPoint x="-420" y="150" as="sourcePoint" />
            <mxPoint x="-370" y="100" as="targetPoint" />
          </mxGeometry>
        </mxCell>
        <mxCell id="ggYYTiPS5rjxjL7YJotB-51" value="" style="endArrow=none;html=1;rounded=0;exitX=1;exitY=0;exitDx=0;exitDy=0;entryX=0;entryY=1;entryDx=0;entryDy=0;" edge="1" parent="1" source="ggYYTiPS5rjxjL7YJotB-47" target="ggYYTiPS5rjxjL7YJotB-35">
          <mxGeometry width="50" height="50" relative="1" as="geometry">
            <mxPoint x="-470" y="210" as="sourcePoint" />
            <mxPoint x="-420" y="160" as="targetPoint" />
          </mxGeometry>
        </mxCell>
        <mxCell id="BvWQZ08VaCauLPswggqA-1" value="" style="endArrow=none;html=1;rounded=0;exitX=1;exitY=0.5;exitDx=0;exitDy=0;entryX=0;entryY=0.5;entryDx=0;entryDy=0;" edge="1" parent="1" source="ggYYTiPS5rjxjL7YJotB-35" target="ggYYTiPS5rjxjL7YJotB-33">
          <mxGeometry width="50" height="50" relative="1" as="geometry">
            <mxPoint x="-230" y="200" as="sourcePoint" />
            <mxPoint x="-180" y="150" as="targetPoint" />
          </mxGeometry>
        </mxCell>
        <mxCell id="BvWQZ08VaCauLPswggqA-2" value="" style="endArrow=none;html=1;rounded=0;exitX=1;exitY=0.5;exitDx=0;exitDy=0;entryX=0;entryY=0.5;entryDx=0;entryDy=0;" edge="1" parent="1" source="ggYYTiPS5rjxjL7YJotB-33" target="KWzyHghkKd3B786rEkZt-2">
          <mxGeometry width="50" height="50" relative="1" as="geometry">
            <mxPoint x="10" y="180" as="sourcePoint" />
            <mxPoint x="60" y="130" as="targetPoint" />
          </mxGeometry>
        </mxCell>
        <mxCell id="nw8nyaTDdihBkn0TKCXF-1" value="id_menu" style="ellipse;whiteSpace=wrap;html=1;" vertex="1" parent="1">
          <mxGeometry x="310" y="400" width="120" height="80" as="geometry" />
        </mxCell>
        <mxCell id="nw8nyaTDdihBkn0TKCXF-2" value="" style="endArrow=none;html=1;rounded=0;exitX=1;exitY=0.5;exitDx=0;exitDy=0;entryX=0;entryY=0.5;entryDx=0;entryDy=0;" edge="1" parent="1" source="ggYYTiPS5rjxjL7YJotB-1" target="nw8nyaTDdihBkn0TKCXF-1">
          <mxGeometry width="50" height="50" relative="1" as="geometry">
            <mxPoint x="270" y="450" as="sourcePoint" />
            <mxPoint x="320" y="400" as="targetPoint" />
          </mxGeometry>
        </mxCell>
        <mxCell id="nw8nyaTDdihBkn0TKCXF-3" value="M" style="text;html=1;align=center;verticalAlign=middle;whiteSpace=wrap;rounded=0;" vertex="1" parent="1">
          <mxGeometry x="-140" y="820" width="60" height="30" as="geometry" />
        </mxCell>
        <mxCell id="nw8nyaTDdihBkn0TKCXF-4" value="1" style="text;html=1;align=center;verticalAlign=middle;whiteSpace=wrap;rounded=0;" vertex="1" parent="1">
          <mxGeometry y="821" width="60" height="30" as="geometry" />
        </mxCell>
        <mxCell id="nw8nyaTDdihBkn0TKCXF-5" value="M" style="text;html=1;align=center;verticalAlign=middle;whiteSpace=wrap;rounded=0;" vertex="1" parent="1">
          <mxGeometry x="-200" y="130" width="60" height="30" as="geometry" />
        </mxCell>
        <mxCell id="nw8nyaTDdihBkn0TKCXF-6" value="1" style="text;html=1;align=center;verticalAlign=middle;whiteSpace=wrap;rounded=0;" vertex="1" parent="1">
          <mxGeometry x="-80" y="130" width="60" height="30" as="geometry" />
        </mxCell>
        <mxCell id="nw8nyaTDdihBkn0TKCXF-7" value="1" style="text;html=1;align=center;verticalAlign=middle;whiteSpace=wrap;rounded=0;" vertex="1" parent="1">
          <mxGeometry x="150" y="230" width="60" height="30" as="geometry" />
        </mxCell>
        <mxCell id="nw8nyaTDdihBkn0TKCXF-8" value="M" style="text;html=1;align=center;verticalAlign=middle;whiteSpace=wrap;rounded=0;" vertex="1" parent="1">
          <mxGeometry x="150" y="320" width="60" height="30" as="geometry" />
        </mxCell>
        <mxCell id="nw8nyaTDdihBkn0TKCXF-9" value="M" style="text;html=1;align=center;verticalAlign=middle;whiteSpace=wrap;rounded=0;" vertex="1" parent="1">
          <mxGeometry x="153" y="570" width="60" height="30" as="geometry" />
        </mxCell>
        <mxCell id="nw8nyaTDdihBkn0TKCXF-10" value="1" style="text;html=1;align=center;verticalAlign=middle;whiteSpace=wrap;rounded=0;" vertex="1" parent="1">
          <mxGeometry x="155" y="690" width="60" height="30" as="geometry" />
        </mxCell>
      </root>
    </mxGraphModel>
  </diagram>
</mxfile>
